<?xml version="1.0" standalone="no"?>
<!DOCTYPE svg PUBLIC "-//W3C//DTD SVG 20010904//EN"
 "http://www.w3.org/TR/2001/REC-SVG-20010904/DTD/svg10.dtd">
<svg version="1.0" xmlns="http://www.w3.org/2000/svg"
 width="16.000000pt" height="16.000000pt" viewBox="0 0 16.000000 16.000000"
 preserveAspectRatio="xMidYMid meet">
<metadata>
Created by potrace 1.11, written by Peter Selinger 2001-2013
</metadata>
<g transform="translate(0.000000,16.000000) scale(0.003125,-0.003125)"
fill="#000000" stroke="none">
<path d="M3315 4605 c-49 -12 -108 -29 -131 -38 -102 -38 -249 -126 -318 -191
-20 -20 -42 -36 -47 -36 -5 0 -9 -3 -9 -7 0 -5 -17 -27 -38 -49 -57 -64 -72
-83 -72 -94 0 -6 -4 -10 -8 -10 -5 0 -14 -10 -20 -22 -6 -13 -25 -45 -42 -73
-17 -27 -33 -57 -36 -65 -4 -8 -12 -28 -19 -45 -17 -40 -43 -123 -50 -160 -24
-121 -25 -445 -1 -445 6 0 5 -5 -2 -12 -7 -7 -31 -11 -54 -9 -97 7 -113 9
-113 11 0 1 -18 3 -40 5 -22 2 -60 7 -85 11 -25 4 -55 7 -67 8 -13 1 -23 5
-23 9 0 5 -3 6 -8 4 -7 -5 -197 35 -230 48 -9 4 -28 9 -40 11 -13 3 -43 12
-65 20 -23 8 -46 16 -52 17 -45 12 -125 41 -125 46 0 4 -8 7 -17 8 -10 1 -36
9 -58 18 -22 10 -42 17 -45 17 -3 0 -16 6 -30 14 -14 7 -70 35 -125 62 -97 48
-148 75 -203 109 -48 30 -197 128 -202 133 -3 3 -32 25 -65 50 -93 70 -176
145 -360 325 -62 61 -124 121 -138 134 l-27 24 -29 -65 c-46 -101 -76 -197
-89 -288 -9 -57 -8 -294 1 -340 4 -19 9 -48 12 -65 6 -29 29 -99 57 -175 17
-46 50 -109 85 -161 15 -23 33 -49 38 -57 27 -41 111 -127 205 -210 l35 -31
-55 5 c-30 3 -81 12 -112 19 -31 7 -59 10 -62 7 -3 -3 -6 -1 -6 5 0 6 -15 13
-33 16 -26 4 -134 49 -180 74 -10 6 -7 -113 4 -172 4 -22 9 -54 12 -72 8 -49
35 -125 70 -195 17 -35 31 -66 31 -69 1 -3 24 -41 52 -85 64 -99 175 -213 264
-274 12 -8 28 -21 36 -27 7 -7 15 -13 18 -13 4 0 24 -11 46 -25 22 -14 46 -25
55 -25 8 0 15 -5 15 -11 0 -5 5 -7 10 -4 6 3 10 1 10 -6 0 -7 3 -10 6 -7 3 3
32 -5 64 -18 33 -13 72 -24 87 -25 l28 0 -23 -16 c-13 -9 -45 -18 -70 -20 -59
-5 -300 -6 -327 -1 -16 2 -19 -2 -16 -22 1 -14 12 -42 22 -62 11 -21 17 -38
14 -38 -4 0 2 -12 12 -28 36 -54 43 -67 54 -94 6 -16 14 -28 19 -28 4 0 19
-17 32 -37 25 -38 143 -163 153 -163 3 0 16 -9 28 -21 80 -74 253 -162 375
-190 28 -7 52 -17 52 -22 0 -5 6 -7 13 -4 7 2 44 -1 82 -8 38 -8 73 -11 77 -9
3 2 9 0 13 -6 5 -9 -133 -105 -225 -156 -19 -10 -37 -21 -40 -24 -19 -19 -287
-135 -365 -157 -105 -30 -191 -53 -215 -58 -14 -2 -50 -9 -80 -16 -82 -16
-175 -22 -387 -23 -106 -1 -193 -4 -193 -7 0 -19 191 -121 395 -212 163 -72
316 -125 485 -166 74 -18 135 -29 305 -57 60 -10 722 -14 785 -4 30 4 75 11
100 14 80 12 190 34 302 60 79 18 308 94 388 128 185 78 490 251 601 342 15
11 39 30 55 41 108 77 444 405 444 434 0 4 10 17 23 28 27 26 67 73 67 80 0 7
63 87 72 91 5 2 8 8 8 13 0 5 19 37 43 71 42 62 157 262 157 274 0 3 9 19 21
35 11 16 18 29 15 29 -4 0 5 21 18 48 61 119 175 438 201 562 2 8 4 15 5 15 1
0 3 8 5 19 2 10 8 39 14 65 6 25 13 58 15 74 3 15 7 35 10 45 2 9 7 38 10 65
3 26 8 66 11 90 11 87 14 125 20 257 7 163 12 231 17 234 66 42 220 187 348
326 49 53 140 175 140 188 0 6 -36 -2 -87 -19 -49 -17 -92 -31 -98 -33 -5 -1
-14 -4 -20 -8 -5 -3 -26 -9 -45 -14 -36 -8 -40 -9 -75 -18 -65 -17 -114 -28
-168 -35 l-61 -8 28 21 c56 43 223 213 256 261 57 82 140 240 140 266 0 14
-24 6 -134 -46 -116 -55 -321 -134 -386 -150 -107 -26 -130 -26 -166 -4 -18
11 -34 23 -36 27 -5 11 -121 100 -160 123 -115 68 -265 122 -374 137 -130 18
-310 12 -409 -13z"/>
</g>
</svg>
